<svg id="Layer_1" data-name="Layer 1" xmlns="http://www.w3.org/2000/svg" viewBox="0 0 49 48"><defs><style>.cls-1{fill:#3056d3;}</style></defs><path class="cls-1" d="M29.55,0A23.23,23.23,0,0,1,41.74,3.45c2,1.2,2.08,1.54.72,3.38s-2.68,3.34-3.88,5.1c-.86,1.28-1.73,1.21-3,.77A25,25,0,0,0,29,11.15c-4.44-.21-7.5,2.39-8.36,6.73q-1.09,5.48-2,11c-1,5.93,2.41,9.12,8.33,7.79a30.5,30.5,0,0,0,5.6-2c1.35-.61,2.09-.38,2.67,1,.92,2.15,1.92,4.26,2.9,6.37.46,1,.42,1.78-.67,2.33C30.37,47.92,23,49.19,15.24,46.73A14.13,14.13,0,0,1,5.62,33.51a69,69,0,0,1,3.14-20C10.93,5.87,16.76,2.1,24.19.58,26,.22,27.76.19,29.55,0Z"/></svg>