<svg id="Layer_1" data-name="Layer 1" xmlns="http://www.w3.org/2000/svg" viewBox="0 0 157 55"><defs><style>.cls-1{fill:#fff;}</style></defs><path class="cls-1" d="M140.08,25.88c.47-.45.79-.73,1.07-1,2.08-2.26,4.18-4.51,6.22-6.81a2.53,2.53,0,0,1,2.12-.9c2,.06,4,0,5.94,0,.42,0,.84.06,1.57.13-.49.63-.77,1.06-1.11,1.41-3,3.1-6,6.21-9.1,9.27a1.41,1.41,0,0,0-.35,1.88c2.09,4.38,4.11,8.79,6.14,13.19.68,1.48.56,1.65-1.05,1.66s-3.48-.07-5.22,0a1.76,1.76,0,0,1-2-1.34c-1-2.59-2.15-5.14-3.24-7.71-.15-.36-.35-.7-.6-1.21-1.22,1.2-2.66,2-2.83,3.86-.14,1.63-.59,3.25-.84,4.88-.15,1-.57,1.58-1.73,1.52-1.61-.09-3.24-.07-4.85,0-1.06,0-1.41-.4-1.23-1.37q1.86-10.43,3.74-20.84c.85-4.76,1.72-9.52,2.52-14.29.18-1.06.51-1.59,1.69-1.53,1.65.09,3.31.07,5,0,1.11,0,1.33.49,1.16,1.43q-1.51,8.39-3,16.78A7.59,7.59,0,0,0,140.08,25.88Z"/><path class="cls-1" d="M31.55,17.15H34c1.29,0,1.5.23,1.29,1.52-.41,2.51-.89,5-1.29,7.51q-.73,4.47-1.36,9a2.94,2.94,0,0,0,3,3.48c.44,0,.89.11,1.33.07,2.56-.25,2.61-.25,3.06-2.76q1.56-8.57,3-17.16c.2-1.2.64-1.75,1.94-1.65,1.49.12,3,0,4.5,0s1.62.24,1.38,1.65c-.48,2.78-1,5.56-1.48,8.34C48.46,32.06,47.6,37,46.67,41.9a2.07,2.07,0,0,1-1,1.39C41.16,45,36.5,46.08,31.63,44.94c-4.37-1-7-4.22-6.78-8.65a106.36,106.36,0,0,1,1.48-10.77c.37-2.43.9-4.83,1.29-7.26A1.14,1.14,0,0,1,29,17.14C29.85,17.19,30.7,17.15,31.55,17.15Z"/><path class="cls-1" d="M105.65,34.12c.41-2.2.91-5.85,1.81-9.39a10.39,10.39,0,0,1,7.23-7.41,14.86,14.86,0,0,1,12.52.93c1.63.92,1.66,1.07.56,2.51-.69.91-1.44,1.76-2.06,2.7a1.35,1.35,0,0,1-2,.53,7.42,7.42,0,0,0-5.63-.66,4,4,0,0,0-3,2.91,82.23,82.23,0,0,0-1.51,8.92A3,3,0,0,0,117,38.7a15.57,15.57,0,0,0,4.73-1.26c1-.4,1.54-.36,2,.68.5,1.24,1.1,2.43,1.65,3.65a1,1,0,0,1-.51,1.48,17.6,17.6,0,0,1-12,1.8C108.14,44,105.58,40.61,105.65,34.12Z"/><path class="cls-1" d="M14.5,16.35a14,14,0,0,1,7.39,2.09c1.22.73,1.26.93.43,2s-1.62,2-2.34,3.09c-.53.78-1.06.73-1.86.46a15.67,15.67,0,0,0-4-.94A4.69,4.69,0,0,0,9.1,27.18q-.66,3.33-1.2,6.67c-.59,3.59,1.46,5.53,5,4.72a18.84,18.84,0,0,0,3.39-1.23c.82-.37,1.27-.23,1.62.58.55,1.3,1.16,2.58,1.76,3.86.27.6.25,1.08-.41,1.41-4.31,2.19-8.8,3-13.48,1.47a8.56,8.56,0,0,1-5.83-8A42,42,0,0,1,1.91,24.5c1.31-4.59,4.84-6.88,9.35-7.8C12.32,16.49,13.42,16.46,14.5,16.35Z"/><path class="cls-1" d="M88.34,23.38c-1.12.1-2.84.18-4.54.45A1.8,1.8,0,0,0,82.71,25c-1.12,6.07-2.16,12.15-3.21,18.23-.17,1-.54,1.53-1.66,1.49-1.65-.07-3.32-.07-5,0-1.12,0-1.34-.5-1.18-1.42l2.49-14.18c.54-3,1-6.05,1.64-9A2.55,2.55,0,0,1,77,18.47a22.4,22.4,0,0,1,13.12-1.78c1.08.17,1.43.73,1.21,1.77-.26,1.22-.51,2.45-.68,3.68C90.54,23.2,90.15,23.84,88.34,23.38Z"/><path class="cls-1" d="M69.24,23.36c-1.36.12-3,.26-4.7.42-.7.07-1,.46-1.12,1.18-1,5.88-2.08,11.75-3.1,17.62C60,44.65,60,44.7,57.91,44.7H54c-1.6,0-1.79-.17-1.53-1.74.57-3.42,1.19-6.83,1.79-10.25.69-4,1.42-8,2.07-12a2.79,2.79,0,0,1,1.89-2.5,23.5,23.5,0,0,1,12.46-1.5c1.46.23,1.57.39,1.31,1.9-.21,1.19-.45,2.38-.6,3.57S70.84,23.93,69.24,23.36Z"/><path class="cls-1" d="M94.68,44.69H91.89c-.76,0-1.08-.31-.93-1.14q2.28-12.63,4.5-25.27c.13-.76.47-1.14,1.28-1.12,1.57,0,3.15,0,4.73,0s1.85.19,1.54,1.93c-.48,2.7-.94,5.41-1.42,8.11-1,5.39-1.94,10.78-2.85,16.18a1.36,1.36,0,0,1-1.63,1.33C96.3,44.66,95.49,44.69,94.68,44.69Z"/><path class="cls-1" d="M96.67,9a4.48,4.48,0,0,1,4.47-4.73,3.61,3.61,0,0,1,3.9,4,4.53,4.53,0,0,1-4.6,4.61A3.62,3.62,0,0,1,96.67,9Z"/></svg>